<svg width="696" height="1080" viewBox="0 0 696 1080" fill="none" xmlns="http://www.w3.org/2000/svg">
<rect width="301.224" height="960.35" rx="133.77" fill="#45474B"/>
<rect x="380.991" y="576.21" width="301.224" height="503.79" rx="133.77" fill="#45474B"/>
<rect x="8.85742" y="709.336" width="301.157" height="623.739" rx="133.77" transform="rotate(-71.7849 8.85742 709.336)" fill="#45474B"/>
<path d="M577.216 -4.58969e-06C635.206 -2.05488e-06 682.216 47.0101 682.216 105L682.216 488.047L566.808 488.047C508.818 488.047 461.808 441.037 461.808 383.047L461.808 -9.63435e-06L577.216 -4.58969e-06Z" fill="#F4CE14"/>
<path d="M0 389.606C0 322.245 54.6066 267.638 121.967 267.638H416.676V366.079C416.676 433.44 362.07 488.047 294.709 488.047H0V389.606Z" fill="#F4CE14"/>
<path d="M0 121.967C0 54.6066 54.6066 0 121.967 0H416.676V98.441C416.676 165.802 362.07 220.408 294.709 220.408H0V121.967Z" fill="#F4CE14"/>
</svg>
