<svg width="1527" height="1080" viewBox="0 0 1527 1080" fill="none" xmlns="http://www.w3.org/2000/svg">
<path d="M952.413 743.74L954.393 778.72C954.613 789.94 957.033 799.07 961.653 806.11H915.783C911.823 799.51 909.733 790.16 909.513 778.06L908.523 752.32C907.863 738.02 904.563 728.12 898.623 722.62C892.903 716.9 883.663 714.04 870.903 714.04H812.823V806.11H768.273V571.15H874.863C901.043 571.15 921.393 577.09 935.913 588.97C950.433 600.85 957.693 617.02 957.693 637.48C957.693 665.64 944.603 684.34 918.423 693.58C930.303 697.32 938.773 703.26 943.833 711.4C949.113 719.32 951.973 730.1 952.413 743.74ZM812.823 607.78V679.06H872.223C884.763 679.06 894.443 675.98 901.263 669.82C908.303 663.44 911.823 654.31 911.823 642.43C911.823 631.21 908.193 622.63 900.933 616.69C893.893 610.75 883.773 607.78 870.573 607.78H812.823ZM1134.26 720.97C1134.26 747.81 1126.34 769.37 1110.5 785.65C1094.66 801.93 1073.76 810.07 1047.8 810.07C1021.84 810.07 1000.94 801.93 985.103 785.65C969.043 769.59 961.013 748.03 961.013 720.97C961.013 693.91 969.043 672.35 985.103 656.29C1000.94 640.01 1021.84 631.87 1047.8 631.87C1073.76 631.87 1094.66 639.9 1110.5 655.96C1126.34 672.02 1134.26 693.69 1134.26 720.97ZM1015.13 761.56C1023.05 771.02 1033.94 775.75 1047.8 775.75C1061.66 775.75 1072.44 771.02 1080.14 761.56C1088.06 751.88 1092.02 738.35 1092.02 720.97C1092.02 703.59 1088.06 690.17 1080.14 680.71C1072.44 671.03 1061.66 666.19 1047.8 666.19C1033.94 666.19 1023.05 670.92 1015.13 680.38C1007.43 689.84 1003.58 703.37 1003.58 720.97C1003.58 738.57 1007.43 752.1 1015.13 761.56ZM1295.04 806.11H1253.46C1251.48 802.59 1249.94 795.66 1248.84 785.32C1237.4 801.82 1219.14 810.07 1194.06 810.07C1175.36 810.07 1160.4 805.56 1149.18 796.54C1138.18 787.52 1132.68 774.98 1132.68 758.92C1132.68 727.9 1154.46 710.19 1198.02 705.79L1223.76 703.48C1232.34 702.38 1238.5 700.4 1242.24 697.54C1245.98 694.46 1247.85 689.95 1247.85 684.01C1247.85 676.75 1245.43 671.47 1240.59 668.17C1235.97 664.65 1228.05 662.89 1216.83 662.89C1204.73 662.89 1196.04 664.98 1190.76 669.16C1185.48 673.12 1182.4 680.05 1181.52 689.95H1140.6C1143.02 651.23 1168.54 631.87 1217.16 631.87C1264.46 631.87 1288.11 648.92 1288.11 683.02V773.77C1288.11 788.73 1290.42 799.51 1295.04 806.11ZM1203.96 780.37C1216.94 780.37 1227.5 776.85 1235.64 769.81C1243.78 762.55 1247.85 752.21 1247.85 738.79V723.28C1243.89 726.8 1237.4 729.11 1228.38 730.21L1205.94 732.85C1194.94 734.17 1187.02 736.81 1182.18 740.77C1177.56 744.51 1175.25 750.01 1175.25 757.27C1175.25 764.53 1177.67 770.25 1182.51 774.43C1187.57 778.39 1194.72 780.37 1203.96 780.37ZM1423.14 657.94V571.15H1464.72V806.11H1424.46V782.35C1411.92 800.83 1393.99 810.07 1370.67 810.07C1347.13 810.07 1328.54 801.93 1314.9 785.65C1301.04 769.37 1294.11 747.81 1294.11 720.97C1294.11 693.69 1301.04 672.02 1314.9 655.96C1328.32 639.9 1346.91 631.87 1370.67 631.87C1393.55 631.87 1411.04 640.56 1423.14 657.94ZM1336.68 722.29C1336.68 739.89 1340.53 753.2 1348.23 762.22C1355.93 771.24 1366.6 775.75 1380.24 775.75C1393.88 775.75 1404.66 771.02 1412.58 761.56C1420.28 752.1 1424.13 738.57 1424.13 720.97C1424.13 703.37 1420.28 689.84 1412.58 680.38C1404.88 670.92 1394.1 666.19 1380.24 666.19C1366.82 666.19 1356.15 671.14 1348.23 681.04C1340.53 690.94 1336.68 704.69 1336.68 722.29ZM860.343 896.87C883.663 896.87 902.253 904.9 916.113 920.96C929.753 937.24 936.573 958.91 936.573 985.97C936.573 1012.81 929.753 1034.37 916.113 1050.65C902.253 1066.93 883.663 1075.07 860.343 1075.07C836.363 1075.07 818.213 1065.61 805.893 1046.69V1071.11H765.963V836.15H807.543V922.94C819.643 905.56 837.243 896.87 860.343 896.87ZM818.433 1026.56C825.913 1036.02 836.583 1040.75 850.443 1040.75C864.083 1040.75 874.863 1035.8 882.783 1025.9C890.483 1016.22 894.333 1002.47 894.333 984.65C894.333 967.27 890.483 954.07 882.783 945.05C875.303 935.81 864.523 931.19 850.443 931.19C836.583 931.19 825.803 935.92 818.103 945.38C810.403 954.84 806.553 968.37 806.553 985.97C806.553 1003.79 810.513 1017.32 818.433 1026.56ZM987.625 1071.11H946.045V836.15H987.625V1071.11ZM1170.29 985.97C1170.29 1012.81 1162.37 1034.37 1146.53 1050.65C1130.69 1066.93 1109.79 1075.07 1083.83 1075.07C1057.87 1075.07 1036.97 1066.93 1021.13 1050.65C1005.07 1034.59 997.043 1013.03 997.043 985.97C997.043 958.91 1005.07 937.35 1021.13 921.29C1036.97 905.01 1057.87 896.87 1083.83 896.87C1109.79 896.87 1130.69 904.9 1146.53 920.96C1162.37 937.02 1170.29 958.69 1170.29 985.97ZM1051.16 1026.56C1059.08 1036.02 1069.97 1040.75 1083.83 1040.75C1097.69 1040.75 1108.47 1036.02 1116.17 1026.56C1124.09 1016.88 1128.05 1003.35 1128.05 985.97C1128.05 968.59 1124.09 955.17 1116.17 945.71C1108.47 936.03 1097.69 931.19 1083.83 931.19C1069.97 931.19 1059.08 935.92 1051.16 945.38C1043.46 954.84 1039.61 968.37 1039.61 985.97C1039.61 1003.57 1043.46 1017.1 1051.16 1026.56ZM1256.44 1075.07C1231.36 1075.07 1211.01 1066.93 1195.39 1050.65C1179.99 1034.59 1172.29 1013.03 1172.29 985.97C1172.29 958.69 1179.99 937.02 1195.39 920.96C1210.57 904.9 1230.92 896.87 1256.44 896.87C1278.66 896.87 1296.81 902.81 1310.89 914.69C1324.97 926.35 1333.22 942.19 1335.64 962.21H1294.06C1292.08 952.31 1287.79 944.72 1281.19 939.44C1274.59 934.16 1266.34 931.52 1256.44 931.52C1243.46 931.52 1233.23 936.25 1225.75 945.71C1218.49 954.95 1214.86 968.37 1214.86 985.97C1214.86 1003.57 1218.6 1017.1 1226.08 1026.56C1233.56 1035.8 1243.68 1040.42 1256.44 1040.42C1266.56 1040.42 1275.03 1037.67 1281.85 1032.17C1288.89 1026.45 1293.18 1018.31 1294.72 1007.75H1336.3C1334.1 1028.21 1325.74 1044.6 1311.22 1056.92C1296.7 1069.02 1278.44 1075.07 1256.44 1075.07ZM1506.24 1071.11H1458.72L1409.22 991.91L1383.48 1017.65V1071.11H1342.56V836.15H1383.48V971.45L1452.78 900.83H1502.28L1437.93 965.18L1506.24 1071.11Z" fill="white"/>
<path d="M164.842 0C238.721 0 298.612 59.8911 298.612 133.771V484.267L574.55 575.071C632.966 589.421 676.301 642.141 676.301 704.984V936.865C676.301 1010.74 616.41 1070.64 542.53 1070.64H511.459C437.58 1070.64 377.688 1010.74 377.688 936.865V824.583L298.612 798.562V818.253C298.612 892.132 238.721 952.023 164.842 952.023H133.771C59.8912 952.023 0.000149962 892.132 0 818.253V133.771C0 59.8911 59.8911 0 133.771 0H164.842Z" fill="white" fill-opacity="0.35"/>
<path d="M571.301 -4.5897e-06C629.291 -2.05488e-06 676.301 47.0101 676.301 105L676.301 483.815L562.804 483.815C504.814 483.815 457.804 436.805 457.804 378.815L457.804 -9.55081e-06L571.301 -4.5897e-06Z" fill="white"/>
<path d="M0 387.285C0 319.925 54.6066 265.318 121.967 265.318H413.064V361.848C413.064 429.208 358.457 483.815 291.096 483.815H0V387.285Z" fill="white"/>
<path d="M0 121.967C0 54.6066 54.6066 0 121.967 0H413.064V96.5299C413.064 163.891 358.457 218.497 291.096 218.497H0V121.967Z" fill="white"/>
</svg>
