<svg width="683" height="1080" viewBox="0 0 683 1080" fill="none" xmlns="http://www.w3.org/2000/svg">
<path d="M167.454 0C241.333 2.18173e-05 301.225 59.8911 301.225 133.771L301.224 488.502L568.41 576.427C570.749 577.196 573.051 578.026 575.317 578.91C636.318 591.35 682.216 645.305 682.216 709.98V946.229C682.216 1020.11 622.325 1080 548.445 1080H514.762C440.882 1080 380.991 1020.11 380.991 946.229V831.795L301.224 805.546L301.225 826.579C301.225 900.458 241.333 960.35 167.454 960.35H133.771C59.8911 960.35 0 900.458 0 826.579V133.771C0 59.8911 59.8911 0 133.771 0H167.454Z" fill="white" fill-opacity="0.35"/>
<path d="M577.216 -4.58969e-06C635.206 -2.05488e-06 682.216 47.0101 682.216 105L682.216 488.047L566.808 488.047C508.818 488.047 461.808 441.037 461.808 383.047L461.808 -9.63435e-06L577.216 -4.58969e-06Z" fill="white"/>
<path d="M0 389.606C0 322.245 54.6066 267.638 121.967 267.638H416.676V366.079C416.676 433.44 362.07 488.047 294.709 488.047H0V389.606Z" fill="white"/>
<path d="M0 121.967C0 54.6066 54.6066 0 121.967 0H416.676V98.441C416.676 165.802 362.07 220.408 294.709 220.408H0V121.967Z" fill="white"/>
</svg>
